# xmcd CD database file
#
# Track frame offsets:
#	12100
#	28950
#	46835
#	82790
#	129560
#	159115
#	178305
#	210752
#	242965
#	272167
#
# Disc length: 3982 seconds
#
# Revision: 0
# Processed by: cddbd v1.5.1PL0 Copyright (c) Steve Scherf et al.
# Submitted via: CDex 1.51
#
DISCID=830eed0a
DTITLE=Hector and Daniel Bingert - Latin Lover Big Band
DYEAR=2002
DGENRE=Jazz
TTITLE0=Latin Lover Come Back To Me
TTITLE1=Lorenzo Carnelli
TTITLE2=Invandrarvärk I Ryggen (Immigrationboard On Your Back)
TTITLE3=Very Black
TTITLE4=One For Bob 
TTITLE5=Total
TTITLE6=Four Salsa Brothers
TTITLE7=Delirium
TTITLE8=Invandrartango (Immigrationtango)
TTITLE9=Llamada Original
EXTD=YEAR: 2002
EXTT0=
EXTT1=
EXTT2=
EXTT3=
EXTT4=
EXTT5=
EXTT6=
EXTT7=
EXTT8=
EXTT9=
PLAYORDER=
